# xmcd CD database file
#
# Track frame offsets:
#	150
#	25494
#	50888
#	68147
#	94617
#	116089
#	144376
#	167207
#	196965
#	226459
#	249989
#	279372
#
# Disc length: 4005 seconds
#
# Revision: 0
# Processed by: cddbd v1.5.1PL0 Copyright (c) Steve Scherf et al.
# Submitted via: CDex 1.51
#
DISCID=ab0fa30c
DTITLE=Various Artist - JAZZ KITCHEN 3
DYEAR=2005
DGENRE=Jazz
TTITLE0=East On West - POVO
TTITLE1=My Favourite Beats (Barrio Jazz Gang Remix) - Dynamic 4
TTITLE2=How Long - Casbah 73
TTITLE3=Ocre - Benjamin Devigne
TTITLE4=Sauve Abril Part 1 - (Patchwork Remix) - Nutropik
TTITLE5=Irreplaceable (Peckham Royalty Remix) - The Funky Lowlives
TTITLE6=Last Trip To Nowhere - Patchworks
TTITLE7=Bau Au (Markus Enochson Remix) - Sam And Gigi
TTITLE8=Tempest (At Jazz Remix) - Kabuki
TTITLE9=Bewitched (Barrio Jazz Gang Rimix) - Pauline London
TTITLE10=The Seven Sea (Xaver Fisher Trio and Tony Economidis Remix) - Xaver Fisher Trio
TTITLE11=I Am A Manchild - Patchworks
EXTD=YEAR: 2005.07.21
EXTT0=
EXTT1=
EXTT2=
EXTT3=
EXTT4=
EXTT5=
EXTT6=
EXTT7=
EXTT8=
EXTT9=
EXTT10=
EXTT11=
PLAYORDER=
